<svg width="134" height="134" viewBox="0 0 134 134" fill="none" xmlns="http://www.w3.org/2000/svg">
<path d="M100.498 47.4575C100.498 50.2182 99.6797 52.9168 98.146 55.2122C96.6123 57.5076 94.4324 59.2966 91.882 60.3531C89.3315 61.4095 86.5251 61.686 83.8175 61.1474C81.11 60.6088 78.623 59.2794 76.6709 57.3274C74.7189 55.3753 73.3896 52.8882 72.851 50.1806C72.3124 47.473 72.5888 44.6665 73.6453 42.116C74.7017 39.5655 76.4907 37.3855 78.7861 35.8518C81.0814 34.3181 83.78 33.4995 86.5406 33.4995C90.2424 33.4995 93.7926 34.97 96.4102 37.5877C99.0278 40.2053 100.498 43.7556 100.498 47.4575ZM93.0114 98.8958C91.9204 103.185 90.3705 107.344 88.3886 111.302C84.729 118.223 79.234 124.002 72.5065 128.005C65.7789 132.009 58.0786 134.082 50.2504 133.998H44.6673V106.88C44.5663 102.257 42.6851 97.8525 39.4159 94.5832C36.1467 91.314 31.7418 89.4327 27.1196 89.3317H0.00248471V83.7485C-0.0820341 75.9201 1.99115 68.2197 5.99461 61.4919C9.99807 54.7642 15.7771 49.2691 22.6978 45.6095C26.655 43.6275 30.8142 42.0776 35.1034 40.9866C55.6102 13.2882 79.3998 0.993921 114.222 0.000106771H114.456C117.049 -0.00847705 119.617 0.500591 122.01 1.49747C124.404 2.49435 126.574 3.95898 128.394 5.80551C130.214 7.65204 131.647 9.84331 132.609 12.2509C133.571 14.6584 134.043 17.2338 133.997 19.8261C132.992 55.1456 121.078 78.1653 93.0114 98.8958ZM117.248 19.5861C117.26 18.8523 116.982 18.1432 116.476 17.6124C115.969 17.0816 115.273 16.7717 114.54 16.7498C84.0505 17.6543 65.1908 27.7264 47.3304 52.6555C42.6996 59.2865 38.5822 66.2617 35.0141 73.52C41.1629 75.0688 46.7773 78.2542 51.2609 82.7379C55.7445 87.2217 58.9299 92.8362 60.4786 98.9851C67.7375 95.4182 74.7126 91.3006 81.3427 86.6685C106.316 68.7687 116.388 49.9644 117.248 19.5861ZM9.10852 104.563C4.7872 108.873 2.12406 121.887 1.18052 127.298L0.00248471 133.998L6.70221 132.814C12.0676 131.865 25.0036 129.19 29.3249 124.858C32.003 122.16 33.5059 118.512 33.5059 114.71C33.5059 110.909 32.003 107.261 29.3249 104.563C26.6076 101.952 22.9853 100.493 19.2167 100.493C15.4482 100.493 11.8258 101.952 9.10852 104.563Z" fill="black"/>
</svg>
