<svg width="82" height="75" viewBox="0 0 82 75" fill="none" xmlns="http://www.w3.org/2000/svg">
<path d="M58.1106 4.0054H26.1106C15.6172 4.0054 7.1106 12.512 7.1106 23.0054V55.0054C7.1106 65.4988 15.6172 74.0054 26.1106 74.0054H58.1106C68.604 74.0054 77.1106 65.4988 77.1106 55.0054V23.0054C77.1106 12.512 68.604 4.0054 58.1106 4.0054Z" fill="url(#paint0_linear_132_74)" style="mix-blend-mode:lighten"/>
<path d="M30.4709 43.435L30.4709 65.458L38.4793 65.458L38.4793 43.435L30.4709 43.435Z" fill="white"/>
<path d="M30.4582 51.4491L52.4812 51.4491L52.4812 43.4407L30.4582 43.4407L30.4582 51.4491Z" fill="white"/>
<path d="M68.0047 37.4404L50.0129 37.4404L50.0129 29.4321L68.0047 29.4321L70.6074 33.4843L68.0047 37.4404Z" fill="white"/>
<path d="M53.4807 51.4606L53.4807 29.4376L45.4724 29.4376L45.4724 51.4606L53.4807 51.4606Z" fill="white"/>
<path d="M16.4631 29.4207L16.4631 65.4583L24.4715 65.4583L24.4715 29.4207L16.4631 29.4207Z" fill="white"/>
<path d="M36.3252 14.9313L67.4187 14.9313L70.622 19.0196L67.4187 22.9397L36.3252 22.9397L36.3252 14.9313Z" fill="white"/>
<path d="M30.4695 37.4425L30.4695 14.919L38.4778 14.919L38.4778 37.4425L30.4695 37.4425Z" fill="white"/>
<path d="M16.4504 37.4423L38.4734 37.4423L38.4734 29.434L16.4504 29.434L16.4504 37.4423Z" fill="white"/>
<path d="M16.4631 29.4207L16.4631 65.4583L24.4715 65.4583L24.4715 29.4207L16.4631 29.4207Z" fill="white"/>
<path d="M36.3252 14.9313L67.4187 14.9313L70.622 19.0196L67.4187 22.9397L36.3252 22.9397L36.3252 14.9313Z" fill="white"/>
<path d="M30.4695 37.4425L30.4695 14.919L38.4778 14.919L38.4778 37.4425L30.4695 37.4425Z" fill="white"/>
<path d="M16.4504 37.4423L38.4734 37.4423L38.4734 29.434L16.4504 29.434L16.4504 37.4423Z" fill="white"/>
<defs>
<linearGradient id="paint0_linear_132_74" x1="42.1106" y1="4.0054" x2="42.1106" y2="74.0054" gradientUnits="userSpaceOnUse">
<stop stop-color="#EE6947"/>
<stop offset="1" stop-color="#FD3465"/>
</linearGradient>
</defs>
</svg>
