<svg width="85" height="75" viewBox="0 0 85 75" fill="none" xmlns="http://www.w3.org/2000/svg">
<path d="M58.1106 4.00543H26.1106C15.6172 4.00543 7.1106 12.512 7.1106 23.0054V55.0054C7.1106 65.4988 15.6172 74.0054 26.1106 74.0054H58.1106C68.604 74.0054 77.1106 65.4988 77.1106 55.0054V23.0054C77.1106 12.512 68.604 4.00543 58.1106 4.00543Z" fill="url(#paint0_linear_21_32)" style="mix-blend-mode:lighten"/>
<path d="M30.4711 43.435L30.4711 65.458L38.4794 65.458L38.4794 43.435L30.4711 43.435Z" fill="white"/>
<path d="M30.4583 51.4491L52.4813 51.4491L52.4813 43.4407L30.4583 43.4407L30.4583 51.4491Z" fill="white"/>
<path d="M68.0049 37.4405L50.0131 37.4405L50.0131 29.4321L68.0049 29.4321L70.6076 33.4843L68.0049 37.4405Z" fill="white"/>
<path d="M53.4809 51.4606L53.4809 29.4377L45.4725 29.4377L45.4725 51.4606L53.4809 51.4606Z" fill="white"/>
<path d="M16.4631 29.4207L16.4631 65.4583L24.4715 65.4583L24.4715 29.4207L16.4631 29.4207Z" fill="white"/>
<path d="M36.3253 14.9313L67.4187 14.9313L70.6221 19.0196L67.4187 22.9397L36.3253 22.9397L36.3253 14.9313Z" fill="white"/>
<path d="M30.4695 37.4425L30.4695 14.919L38.4779 14.919L38.4779 37.4425L30.4695 37.4425Z" fill="white"/>
<path d="M16.4505 37.4423L38.4734 37.4423L38.4734 29.434L16.4505 29.434L16.4505 37.4423Z" fill="white"/>
<defs>
<linearGradient id="paint0_linear_21_32" x1="42.1106" y1="4.00543" x2="42.1106" y2="74.0054" gradientUnits="userSpaceOnUse">
<stop stop-color="#0000FF"/>
<stop offset="1" stop-color="#0A0A41"/>
</linearGradient>
</defs>
</svg>
